<?xml version="1.0" encoding="UTF-8"?>
<svg width="128pt" height="128pt" version="1.1" viewBox="0 0 128 128" xmlns="http://www.w3.org/2000/svg">
 <g>
  <path d="m16.598 67.52h-13.184c-0.70703 0-1.2812 0.57031-1.2812 1.2812v37.973c0 0.70703 0.57422 1.2812 1.2812 1.2812h13.184c0.70703 0 1.2812-0.57031 1.2812-1.2812l-0.003906-37.973c0-0.70703-0.57031-1.2812-1.2773-1.2812zm-1.2812 37.973h-10.625v-35.414h10.625z"/>
  <path d="m124.59 67.52h-13.18c-0.70703 0-1.2812 0.57031-1.2812 1.2812v37.973c0 0.70703 0.57031 1.2812 1.2812 1.2812h13.184c0.70703 0 1.2812-0.57031 1.2812-1.2812l-0.003906-37.973c0-0.70703-0.57031-1.2812-1.2812-1.2812zm-1.2773 37.973h-10.621l-0.003906-35.414h10.621z"/>
  <path d="m102.99 58.773h-13.184c-0.70703 0-1.2812 0.57422-1.2812 1.2812v46.719c0 0.70703 0.57031 1.2812 1.2812 1.2812h13.184c0.70703 0 1.2812-0.57031 1.2812-1.2812v-46.719c0-0.70703-0.57031-1.2812-1.2812-1.2812zm-1.2773 46.719h-10.625v-44.16h10.625z"/>
  <path d="m81.391 19.945h-13.184c-0.70703 0-1.2812 0.57422-1.2812 1.2812v85.547c0 0.70703 0.57031 1.2812 1.2812 1.2812h13.184c0.70703 0 1.2812-0.57031 1.2812-1.2812v-85.547c0-0.70703-0.57422-1.2812-1.2812-1.2812zm-1.2812 85.547h-10.621v-82.984h10.621z"/>
  <path d="m59.793 53.016h-13.184c-0.70703 0-1.2812 0.57422-1.2812 1.2812v52.48c0 0.70703 0.57422 1.2812 1.2812 1.2812h13.184c0.70703 0 1.2812-0.57031 1.2812-1.2812v-52.48c0-0.71094-0.57422-1.2812-1.2812-1.2812zm-1.2812 52.477h-10.625v-49.922h10.625z"/>
  <path d="m38.195 40.426h-13.184c-0.70703 0-1.2812 0.57422-1.2812 1.2812v65.066c0 0.70703 0.57422 1.2812 1.2812 1.2812h13.184c0.70703 0 1.2812-0.57031 1.2812-1.2812l-0.003906-65.066c0-0.70703-0.57031-1.2812-1.2773-1.2812zm-1.2812 65.066h-10.621v-62.508h10.621z"/>
 </g>
</svg>
