<?xml version="1.0" encoding="UTF-8"?>
<svg width="128pt" height="128pt" version="1.1" viewBox="0 0 128 128" xmlns="http://www.w3.org/2000/svg">
 <g fill-rule="evenodd">
  <path d="m42.66 41.676 3.3594 3.3594c0.65625 0.65625 1.7188 0.65625 2.375 0l6.7148-6.7188c0.65625-0.65234 0.65625-1.7188 0-2.375-0.65234-0.65234-1.7188-0.65234-2.3711 0l-5.5312 5.5312-2.1719-2.1719c-0.65625-0.65234-1.7188-0.65234-2.375 0-0.65625 0.65625-0.65625 1.7188 0 2.375z"/>
  <path d="m42.66 58.469 3.3594 3.3594c0.65625 0.65625 1.7188 0.65625 2.375 0l6.7148-6.7188c0.65625-0.65234 0.65625-1.7188 0-2.3711-0.65234-0.65625-1.7188-0.65625-2.3711 0l-5.5312 5.5273-2.1719-2.1719c-0.65625-0.65234-1.7188-0.65234-2.375 0-0.65625 0.65625-0.65625 1.7227 0 2.375z"/>
  <path d="m42.66 75.262 3.3594 3.3594c0.65625 0.65625 1.7188 0.65625 2.375 0l6.7148-6.7148c0.65625-0.65625 0.65625-1.7227 0-2.375-0.65234-0.65625-1.7188-0.65625-2.3711 0l-5.5312 5.5273-2.1719-2.168c-0.65625-0.65625-1.7188-0.65625-2.375 0-0.65625 0.65234-0.65625 1.7188 0 2.3711z"/>
  <path d="m60.641 38.809h23.512c0.92578 0 1.6797-0.75 1.6797-1.6797 0-0.92578-0.75391-1.6797-1.6797-1.6797h-23.512c-0.92578 0-1.6797 0.75391-1.6797 1.6797 0 0.92969 0.75391 1.6797 1.6797 1.6797z"/>
  <path d="m60.641 55.602h23.512c0.92578 0 1.6797-0.75 1.6797-1.6758 0-0.92969-0.75391-1.6797-1.6797-1.6797h-23.512c-0.92578 0-1.6797 0.75-1.6797 1.6797 0 0.92578 0.75391 1.6758 1.6797 1.6758z"/>
  <path d="m60.641 45.527h13.438c0.92578 0 1.6758-0.75391 1.6758-1.6797 0-0.92578-0.75-1.6797-1.6758-1.6797h-13.438c-0.92578 0-1.6797 0.75391-1.6797 1.6797 0 0.92578 0.75391 1.6797 1.6797 1.6797z"/>
  <path d="m60.641 62.32h13.438c0.92578 0 1.6758-0.75391 1.6758-1.6797s-0.75-1.6797-1.6758-1.6797h-13.438c-0.92578 0-1.6797 0.75391-1.6797 1.6797s0.75391 1.6797 1.6797 1.6797z"/>
  <path d="m95.906 68.055v26.176c0 4.6367-3.7578 8.3945-8.3945 8.3945h-47.023c-4.6367 0-8.3945-3.7578-8.3945-8.3945v-60.457c0-4.6367 3.7578-8.3984 8.3945-8.3984h47.023c4.6367 0 8.3945 3.7617 8.3945 8.3984v18.184c1.3398 0 2.6211 0.53125 3.5625 1.4766 0.64062 0.63672 1.332 1.3281 1.9688 1.9648 0.94531 0.94531 1.4766 2.2266 1.4766 3.5625 0 1.3359-0.53125 2.6211-1.4766 3.5625zm-3.3555-14.816v-19.465c0-2.7852-2.2578-5.0391-5.0391-5.0391h-47.023c-2.7812 0-5.0391 2.2539-5.0391 5.0391v60.457c0 2.7812 2.2578 5.0352 5.0391 5.0352h47.023c2.7812 0 5.0391-2.2539 5.0391-5.0352v-22.816l-16.727 16.723c-0.55078 0.55469-1.2266 0.97266-1.9688 1.2188-2.3398 0.77734-9.3242 3.1094-9.3242 3.1094-0.60156 0.19922-1.2695 0.042968-1.7188-0.40625-0.44922-0.45312-0.60547-1.1172-0.40625-1.7188 0 0 2.3281-6.9883 3.1094-9.3242 0.24609-0.74219 0.66406-1.418 1.2148-1.9688 3.2227-3.2227 19.457-19.457 25.617-25.613 0.0625-0.066406 0.13281-0.13281 0.20312-0.19531zm-25.895 34.977 4.3125-1.4375-2.875-2.875zm3.0781-7.4219 4.3438 4.3438 17.777-17.777-4.3438-4.3438zm24.496-15.809-4.3438-4.3438 4.832-4.8359c0.31641-0.3125 0.74609-0.49219 1.1875-0.49219 0.44531 0 0.875 0.17969 1.1875 0.49219l1.9688 1.9688c0.31641 0.31641 0.49219 0.74219 0.49219 1.1875 0 0.44531-0.17578 0.875-0.49219 1.1875z"/>
 </g>
</svg>
