<?xml version="1.0" encoding="UTF-8"?>
<svg width="128pt" height="128pt" version="1.1" viewBox="0 0 128 128" xmlns="http://www.w3.org/2000/svg">
 <g>
  <path d="m84.609 69.246h-16.77c-0.25781-0.51172-0.51172-0.89453-0.89453-1.2812-0.38281-0.38281-0.89453-0.76953-1.4062-1.0234l-0.003906-24.445c0-1.0234-0.76953-1.793-1.793-1.793-1.0234 0-1.793 0.76953-1.793 1.793v24.449c-0.64062 0.25781-1.1523 0.64063-1.6641 1.1523l-0.12891 0.51172 0.12891-0.51172c-0.64062 0.76953-1.0234 1.793-1.0234 2.9453 0 2.4336 2.0469 4.4805 4.4805 4.4805 1.793 0 3.457-1.1523 4.0977-2.6875h16.641c1.0234 0 1.793-0.76953 1.793-1.793 0-1.0273-0.76953-1.7969-1.6641-1.7969z"/>
  <path d="m107.14 69.504c-0.51172-11.902-5.8867-23.039-14.848-30.848-1.793-1.5352-3.7109-2.9453-5.6328-4.2227-6.3984-3.9688-13.695-6.1445-21.121-6.3984h-3.457c-8.0625 0.38281-15.871 2.9453-22.527 7.4258-1.5352 1.0234-2.9453 2.1758-4.3516 3.3281-8.832 7.8086-14.078 18.945-14.594 30.594h-0.12891v3.457c0.89453 22.785 19.586 41.215 42.496 41.602h0.25781 0.76953 0.25781c23.039-0.25781 41.855-18.688 42.754-41.602h0.12891zm-41.602 42.367v-3.9688c0-0.76953-0.64062-1.2812-1.2812-1.2812h-0.76953c-0.76953 0-1.2812 0.64062-1.2812 1.2812v3.9688c-20.992-0.89453-38.016-17.922-38.785-38.91h3.9688c0.76953 0 1.2812-0.64063 1.2812-1.2812v-0.76953c0-0.76953-0.64062-1.2812-1.2812-1.2812h-3.9688c0.51172-11.008 5.375-21.375 13.566-28.672 1.2812-1.1523 2.6875-2.1758 4.0977-3.1992 6.2734-4.2227 13.566-6.6562 21.121-7.0391l0.003906 3.8398c0 0.76953 0.64062 1.2812 1.2812 1.2812h0.76953c0.76953 0 1.2812-0.64062 1.2812-1.2812v-3.9688c7.0391 0.25781 13.824 2.3047 19.711 6.0156 1.9219 1.1523 3.7109 2.4336 5.375 3.9688 8.4492 7.2969 13.441 17.793 13.824 28.93h-3.8398c-0.76953 0-1.2812 0.64062-1.2812 1.2812v0.76953c0 0.76953 0.64062 1.2812 1.2812 1.2812h3.8398c-0.76953 21.117-17.793 38.141-38.914 39.035z"/>
  <path d="m109.7 50.176c-1.4062-3.1992-3.3281-6.2734-5.375-9.0898-1.793-2.4336-3.8398-4.7344-6.1445-6.7852l0.38672-0.38672 2.6875-2.8164c9.3438 6.7852 11.391 6.5273 12.031 6.2734 0.12891 0 0.38281-0.12891 0.51172-0.25781 0.12891-0.12891 0.25781-0.12891 0.25781-0.25781 0 0 0.12891-0.12891 0.12891-0.25781 4.9922-6.7852 4.8633-15.871-0.12891-22.398 0-0.12891 0-0.12891 0.12891-0.25781 0.38281-1.1523 0.25781-2.3047-0.12891-3.1992 0-0.12891 0-0.12891-0.12891-0.25781-0.25781-0.51172-0.64062-0.89453-1.0234-1.2812l-0.12891-0.12891-0.12891-0.12891c-0.38281-0.25781-0.89453-0.64062-1.4062-0.76953-1.2812-0.38281-2.6875-0.25781-3.8398 0.38281-7.2969-3.8398-16.258-2.5586-22.145 3.457-0.12891 0-0.12891 0.12891-0.25781 0.12891 0 0-0.12891 0.12891-0.12891 0.25781-0.12891 0.25781-0.25781 0.51172-0.25781 0.76953-0.12891 0.89453 1.2812 3.457 8.7031 10.879l-3.7109 3.8398c-3.3281-2.0469-7.0391-3.7109-10.754-4.8633-3.8398-1.2812-7.8086-1.9219-11.902-2.1758v-2.9453h3.3281c0.76953 0 1.2812-0.64062 1.2812-1.2812v-4.3359c0-0.76953-0.64062-1.2812-1.2812-1.2812h-13.055c-0.76953 0-1.2812 0.64063-1.2812 1.2812v4.4805c0 0.76953 0.64062 1.2812 1.2812 1.2812h3.3281v2.9453c-4.0977 0.25781-8.0625 1.0234-12.031 2.3047-3.5859 1.1523-7.0391 2.8164-10.367 4.7344l-3.7109-3.8398c7.5508-7.4258 8.832-10.113 8.7031-10.879 0-0.25781-0.12891-0.64062-0.25781-0.76953 0-0.12891-0.12891-0.12891-0.12891-0.25781 0 0-0.12891-0.12891-0.25781-0.12891-5.7578-6.1445-14.715-7.4258-22.012-3.5859-1.1523-0.64062-2.5586-0.89453-3.8398-0.38281-0.51172 0.12891-0.89844 0.38281-1.2812 0.76953l-0.12891 0.12891-0.12891 0.12891c-0.38281 0.38281-0.76953 0.76953-1.0234 1.2812 0 0.12891 0 0.12891-0.12891 0.25781-0.38281 1.0234-0.51172 2.1758-0.12891 3.1992 0 0.12891 0 0.12891 0.12891 0.25781-4.9922 6.6562-5.1211 15.742-0.12891 22.398 0 0.12891 0.12891 0.12891 0.12891 0.25781 0.12891 0.12891 0.12891 0.25781 0.25781 0.25781 0.12891 0.12891 0.25781 0.25781 0.51172 0.25781 0.64062 0.25781 2.8164 0.51172 12.031-6.2734l2.6875 2.8164 0.38672 0.38672c-2.3047 2.1758-4.4805 4.4805-6.3984 7.0391-2.0469 2.8164-3.8398 5.7617-5.2461 8.9609-1.4062 3.1992-2.5586 6.6562-3.3281 9.9844-0.76953 3.5859-1.1523 7.168-1.1523 10.879 0 3.9688 0.51172 7.8086 1.2812 11.52 0.89453 3.7109 2.1758 7.2969 3.8398 10.625 1.6641 3.3281 3.5859 6.5273 6.0156 9.3438 2.3047 2.8164 4.9922 5.5039 7.9375 7.8086l0.51172 0.38281 0.38281-0.51172-0.25781 0.64062c1.2812 0.89453 2.5586 1.793 3.8398 2.6875l0.64062 0.38281c3.8398 2.4336 8.0625 4.2227 12.414 5.5039 4.4805 1.2812 9.2148 1.9219 13.824 1.9219s9.3438-0.64062 13.695-1.9219c4.3516-1.2812 8.4492-3.0703 12.289-5.375l0.64062-0.38281c1.2812-0.76953 2.5586-1.6641 3.8398-2.6875l0.64062-0.51172c2.9453-2.3047 5.6328-4.9922 7.9375-7.8086 2.3047-2.9453 4.3516-6.0156 6.0156-9.3438 1.6641-3.457 2.9453-7.0391 3.8398-10.625 0.89453-3.8398 1.4062-7.6797 1.4062-11.648 0-3.7109-0.38281-7.4258-1.1523-11.008-0.89844-3.3398-2.0508-6.7969-3.5859-9.9961zm-13.438-25.086s0.125 0 0 0c0.64063-0.64062 0.51172-1.4062 0.12891-1.9219-0.12891-0.12891-0.25781-0.12891-0.25781-0.12891-4.8633-4.7344-8.0625-8.1914-8.5742-9.3438 5.1211-4.9922 12.801-6.0156 19.07-2.5586 0.25391 0.38281 0.76562 0.51172 1.1523 0.38281h0.12891 0.12891c0.12891 0 0.38281-0.12891 0.51172-0.25781 0.12891-0.12891 0.25781-0.25781 0.38281-0.25781 0.76953-0.38281 1.5352-0.25781 2.1758 0.25781 0.51172 0.51172 0.76953 1.2812 0.51172 2.0469 0 0.12891-0.12891 0.38281-0.25781 0.51172-0.38281 0.51172-0.25781 1.1523 0.12891 1.5352 4.7344 5.6328 4.9922 13.695 0.76953 19.586-1.2812-0.38281-4.6094-2.1758-10.113-6.2734h-0.12891s0-0.12891-0.12891-0.12891c-0.51172-0.51172-1.4062-0.51172-1.793 0l-3.3242 3.4609-0.12891 0.12891c-1.2812-1.1523-2.6875-2.1758-4.0977-3.0703zm-37.762-9.6016v-1.9219h10.625v1.9219h-3.3281c-0.76953 0-1.2812 0.64062-1.2812 1.2812v3.5859h-1.4062v-3.5859c0-0.76953-0.64062-1.2812-1.2812-1.2812zm-30.594 12.926c-0.51172-0.51172-1.2812-0.51172-1.793 0 0 0 0 0.12891-0.12891 0.12891h-0.12891c-5.5039 4.0977-8.9609 5.8867-10.113 6.2734-4.2227-6.0156-3.8398-13.953 0.76953-19.586 0.38281-0.51172 0.38281-1.1523 0.12891-1.5352-0.12891-0.12891-0.12891-0.25781-0.25781-0.51172-0.25781-0.76953 0-1.5352 0.51172-2.0469 0.64062-0.51172 1.4062-0.64062 2.1758-0.25781 0.12891 0.12891 0.25781 0.12891 0.38281 0.25781 0.12891 0.12891 0.25781 0.25781 0.51172 0.25781h0.12891 0.12891c0.38281 0.12891 0.89453 0 1.1523-0.38281 6.2734-3.457 13.953-2.4336 19.07 2.5586-0.51172 1.1523-3.7109 4.6094-8.5742 9.3438-0.12891 0-0.12891 0.12891-0.25781 0.12891-0.51172 0.51172-0.51172 1.2812 0 1.793l0.12891 0.12891 3.7109 3.9688c-1.4062 1.0234-2.8164 2.0469-4.0977 3.0703l-0.12891-0.12891zm83.074 52.48c-0.64062 3.0703-1.5352 6.1445-2.8164 8.9609-1.1523 2.8164-2.6875 5.6328-4.4805 8.1914-1.6641 2.5586-3.7109 4.9922-5.8867 7.168-1.2812 1.2812-2.6875 2.5586-4.0977 3.7109l-0.64062 0.51172c-0.76953 0.64062-1.5352 1.1523-2.3047 1.6641-0.38281 0.25781-0.89453 0.64063-1.4062 0.89453l-0.64062 0.38281c-1.9219 1.1523-4.0977 2.3047-6.1445 3.1992-2.9453 1.2812-5.8867 2.1758-8.9609 2.8164-6.3984 1.2812-13.055 1.2812-19.328 0-3.0703-0.64062-6.1445-1.5352-8.9609-2.8164-2.1758-0.89453-4.3516-2.0469-6.3984-3.3281l-0.64062-0.38281c-0.38281-0.25781-0.76953-0.51172-1.1523-0.76953-0.89453-0.64062-1.793-1.2812-2.5586-1.9219l-0.63672-0.375c-1.4062-1.1523-2.6875-2.3047-3.9688-3.5859-2.1758-2.1758-4.0977-4.6094-5.8867-7.168-1.793-2.5586-3.1992-5.375-4.4805-8.1914-1.2812-2.9453-2.1758-5.8867-2.8164-8.9609-0.64062-3.1992-1.0234-6.3984-1.0234-9.7266 0-3.1992 0.38281-6.5273 1.0234-9.7266 0.64062-3.0703 1.5352-6.1445 2.8164-8.9609 1.1523-2.8164 2.6875-5.6328 4.4805-8.1914 1.6641-2.5586 3.7109-4.9922 5.8867-7.168 0.64062-0.64062 1.2812-1.2812 1.9219-1.793 1.6641-1.4062 3.3281-2.8164 5.1211-3.9688 0.38281-0.25781 0.64062-0.38281 1.0234-0.64062 2.3047-1.4062 4.7344-2.6875 7.168-3.8398 2.9453-1.2812 5.8867-2.1758 8.9609-2.8164 2.4336-0.51172 4.9922-0.76953 7.5508-0.89453h2.0469 1.9219c2.5586 0.12891 5.2461 0.38281 7.8086 0.89453 3.0703 0.64062 6.1445 1.5352 8.9609 2.8164 2.4336 1.0234 4.7344 2.1758 6.9102 3.5859 0.38281 0.25781 0.89453 0.51172 1.2812 0.76953 1.6641 1.1523 3.3281 2.4336 4.8633 3.8398 0.76953 0.64062 1.5352 1.4062 2.1758 2.0469 2.1758 2.1758 4.0977 4.6094 5.8867 7.168 1.793 2.5586 3.1992 5.375 4.4805 8.1914 1.2812 2.9453 2.1758 5.8867 2.8164 8.9609 0.64063 3.1992 1.0234 6.3984 1.0234 9.7266-0.003906 3.3281-0.25781 6.5273-0.89844 9.7266z"/>
 </g>
</svg>
