<?xml version="1.0" encoding="UTF-8"?>
<svg width="512pt" height="512pt" version="1.1" viewBox="0 0 512 512" xmlns="http://www.w3.org/2000/svg">
 <path d="m502.95 44.387c-4.6914-2.4531-10.375-2.0547-14.703 1.0117l-172.94 122.78 0.64844-112.29c0.023437-5.3047-2.9141-10.18-7.6172-12.625-4.7031-2.4414-10.387-2.043-14.715 1.0234l-284.84 202.22c-3.7148 2.6406-5.9258 6.8906-5.957 11.449-0.023437 4.5508 2.1445 8.832 5.8242 11.508l282.51 205.48c2.4688 1.7891 5.3828 2.6992 8.3203 2.6992 2.1758 0 4.3594-0.50781 6.3867-1.5195 4.7266-2.3984 7.7266-7.2422 7.7578-12.543l0.63672-112.26 171.52 124.74c2.4648 1.7773 5.3828 2.6992 8.3203 2.6992 2.1758 0 4.3594-0.50781 6.375-1.5234 4.7383-2.3984 7.7266-7.2305 7.7578-12.543l2.3281-407.71c0.03125-5.2852-2.9102-10.16-7.6133-12.598zm-217.44 391.49-244.32-177.7 246.33-174.88zm194.61 1.1211-165.66-120.47 0.66016-113.54 167.01-118.58z"/>
</svg>
